<?xml version="1.0" encoding="UTF-8"?>
<svg id="Layer_2" data-name="Layer 2" xmlns="http://www.w3.org/2000/svg" viewBox="0 0 290.93 191.07">
  <defs>
    <style>
      .cls-1 {
        fill: #f8f7f7;
      }
    </style>
  </defs>
  <g id="Layer_1-2" data-name="Layer 1">
    <g>
      <path class="cls-1" d="M251.1,93.48c-36.62,25.63-84.42,47.32-127,61-28.93,9.3-74.21,20.36-103.32,15.1-5.13-.93-9.93-2.59-13.99-5.65-5.89-4.44-8.17-11.47-5.97-18.47,1.52-4.82,4.02-8.92,7.18-12.91,11.54-14.48,27.49-25.43,43.3-35.43-.75-35.03,17.92-67.8,48.42-85.03C121.56-.25,147.47-3.33,171.62,3.71c17.51,5.3,32.82,15.42,44.83,29.06,17.66-3.44,35.83-6.95,53.29-4.46,5.41.82,10.52,2.37,14.81,5.63,5.4,4.11,7.54,10.59,5.78,17.08-4.44,16.38-25.19,32.64-39.22,42.46ZM173.83,123.23c18.94-8.43,37.09-17.68,54.69-28.43-.1-22.62-9.27-44.26-25.37-59.83-21.84-21.11-53.13-28.88-82.15-19.73-22.08,6.79-40.3,22.52-50.28,43.29-15.12,31.47-9.42,69.03,14.3,94.57,30.47-6.63,60.24-17.16,88.82-29.88ZM276.71,54.59c2.84-4.61,4.8-9.43.55-12.18-2.22-1.44-4.73-2.12-7.37-2.69-14.8-2.39-30.77.37-45.73,3.16,8.81,13.9,13.81,28.71,15.12,44.97,9.87-6.53,18.72-13.25,26.97-21.05,3.97-3.76,7.42-7.56,10.47-12.22ZM14.27,155.5c2.89,1.74,6.11,2.52,9.38,3.12,15.71,2.16,32.69.12,48.97-2.85-10.7-13.6-17.42-28.65-20.28-45.87-12.67,8.07-25.68,17.48-35.11,28.78-4.35,5.5-9.37,12.96-2.95,16.82Z"/>
      <path class="cls-1" d="M89.88,172.09l14.53-3.65c40.31,23.45,91.22,8.82,113.6-31.88,3.19-5.77,5.52-11.69,7.45-18.13l12.74-7.26c-3.37,20.98-13.62,40.55-29.3,55.01-15.67,14.45-35.6,23.26-56.9,24.7-22.32,1.4-44.2-4.82-62.12-18.78Z"/>
      <path class="cls-1" d="M110.35,115.78c-2.18,2.18-5.3,1.7-7.13.09s-2.54-5.26-.58-7.24l22.88-23.2-22.85-23.17c-1.9-1.92-1.32-5.32.4-7.06,1.38-1.39,4.9-2.39,6.78-.5l26.99,27.06c2.31,2.31,1.57,5.88-.55,8l-25.94,26.02Z"/>
      <path class="cls-1" d="M175.01,107.29c2.95,0,4.71,2.59,4.8,4.92.1,2.45-1.78,5.15-4.68,5.15h-32.02c-2.76.01-4.63-2.55-4.71-4.81-.09-2.56,1.78-5.31,4.65-5.31l31.96.04Z"/>
    </g>
  </g>
</svg>