<?xml version="1.0" encoding="UTF-8"?>
<svg id="Layer_2" data-name="Layer 2" xmlns="http://www.w3.org/2000/svg" viewBox="0 0 497.07 73.19">
  <defs>
    <style>
      .cls-1 {
        fill: #f3f1f1;
      }

      .cls-2 {
        fill: #f8f7f7;
      }
    </style>
  </defs>
  <g id="Layer_1-2" data-name="Layer 1">
    <g>
      <g>
        <polygon class="cls-2" points="320.92 63.02 320.79 40.2 312 52.53 303.5 52.6 294.79 39.97 294.69 63.04 281.29 63.03 281.27 14.07 290.95 14.08 307.81 37.7 324.91 14.05 334.51 14.08 334.52 63 320.92 63.02"/>
        <path class="cls-2" d="M376.01,62.79c-16.47,4.54-33.48-4.54-35.3-21.59-1.3-12.25,5.72-23.23,17.53-26.97,6.31-1.99,13.24-1.94,19.51.3,10.5,3.75,17.03,13.53,16.68,24.61s-7.51,20.63-18.42,23.64ZM379.33,43.91c1.16-3.29,1.2-6.8.37-10.07-1.41-5.52-6.11-8.82-11.76-8.92-4.37-.07-8.62,1.43-11.07,5.17-2.29,3.5-2.62,7.79-1.87,11.8,1.16,6.19,6.13,9.85,12.28,9.9,5.39.04,10.14-2.46,12.05-7.88Z"/>
        <path class="cls-2" d="M218.49,61.28c-7.94,3.65-17.05,3.54-24.77-.07-9.01-4.22-14.33-12.86-14.34-22.72,0-11.4,7.07-21.12,18.03-24.42,6.79-2.04,14.13-1.6,20.63,1.19,9.22,3.95,14.75,12.58,14.92,22.55.17,10.06-5.05,19.13-14.48,23.47ZM205.8,51.78c6.69.18,11.87-3.89,12.91-10.4.63-3.93.19-8.13-2.13-11.48-2.55-3.69-6.89-5.14-11.27-4.97-5.61.22-10.19,3.66-11.45,9.19-.69,3-.65,6.25.17,9.22,1.48,5.4,6.18,8.29,11.77,8.44Z"/>
        <path class="cls-2" d="M273.84,54.15c-4.29,9.36-16.87,11.07-26.55,9.02-5-1.02-9.32-3.41-12.8-7.15l8.66-8.52c2.83,2.63,6.14,4.48,9.99,5.12,2.11.34,4.18.24,6.12-.57,1.16-.51,1.89-1.52,1.93-2.66.05-1.2-.67-2.47-1.9-2.97l-6.2-2.53c-3.47-1.42-6.99-2.54-9.93-4.82-3.19-2.47-4.78-5.83-5.06-9.75-.41-5.76,2.16-10.93,7.27-13.77,3.92-2.17,8.25-2.89,12.81-2.62,6.4.3,12.45,2.44,17.01,6.99l-8.96,8.5c-3.16-3.46-7.66-5.17-12.14-4.21-1.29.39-2.21,1.22-2.34,2.35-.14,1.2.48,2.41,1.67,2.9l5.71,2.36c3.05,1.26,6.15,2.09,8.95,3.83,3.02,1.87,5.48,4.48,6.42,7.99s.82,7.26-.67,10.52Z"/>
        <path class="cls-2" d="M158.67,51.72c4.04.01,7.56-1.35,10.17-4.13l9.18,8.95c-7.21,7.27-18.33,8.82-27.87,6.15-7.21-2.02-13.14-7.14-15.97-13.14-3.66-7.76-3.34-16,.5-23.12,8.11-15.03,30.25-18.29,42.99-6.33l-9.06,8.98c-4.88-4.91-12.73-5.55-18.13-1.3-3.57,2.81-4.79,7.29-4.57,11.69.35,6.95,5.56,12.22,12.74,12.24Z"/>
        <path class="cls-1" d="M474.52,57.63c-2.15,2.33-4.86,3.89-7.95,3.92l-11.01.12v-22.81s10.71.07,10.71.07c3.47.02,6.54,1.74,8.65,4.38,2.9,4.37,2.82,10.01-.41,14.32ZM470.73,50.1c0-3.19-1.74-5.91-4.79-5.94l-4.19-.04-.03,12.24c1.44.12,3.01.18,4.55-.07,2.97-.49,4.46-3.11,4.46-6.19Z"/>
        <path class="cls-1" d="M452.46,50.28c0,6.63-5.37,12-12,12s-12-5.37-12-12,5.37-12,12-12,12,5.37,12,12ZM445.05,54.48c1.74-2.37,1.72-5.81.21-8.13-2.09-3.2-7.13-3.33-9.37-.26-1.75,2.39-1.75,5.94,0,8.35,2.07,2.87,6.97,3.03,9.17.04Z"/>
        <path class="cls-1" d="M495.76,52.61h-9.38s.01,3.86.01,3.86l10.68.04v5.14s-16.92.03-16.92.03v-22.82s16.6-.06,16.6-.06l.03,5.24h-10.38c-.17,1.32-.16,2.35,0,3.55l9.35.08v4.94Z"/>
        <path class="cls-1" d="M414.07,54.47c2.37,2.97,6.69,2.66,9.23.11l3.98,3.74c-2.26,2.7-5.42,3.63-8.81,3.72-6.8.17-12.13-4.98-12.09-11.79s5.3-11.89,12.1-11.79c3.34.05,6.63,1,8.69,3.52l-3.9,3.9c-2.75-2.64-7.2-2.71-9.43.46-1.6,2.27-1.62,5.84.22,8.14Z"/>
      </g>
      <g>
        <path class="cls-1" d="M87,42.61c-16.91,9.11-34.62,15.91-53.14,20.27-8.88,2.09-22.36,4.36-29.88.52C-.06,61.33-1.05,56.98,1.13,53.14c3.8-6.7,13.38-12.87,20.53-16.95.07-11.45,5.82-22.42,14.73-28.98C46.33-.1,58.88-1.9,70.32,2.03c5.89,2.03,10.48,6.03,14.73,10.08,7.89-1.33,20.65-3.99,26.81.24,2.76,1.9,3.78,5.09,2.33,8.15s-3.59,5.62-6.2,7.93c-6.35,5.63-13.29,10.05-20.98,14.19ZM90.12,36.11c-.28-12.67-7.24-23.53-18.17-28.95-12.81-5.87-28.15-3.01-37.73,7.39-11.34,12.32-11.39,31.71.25,43.81,19.61-4.85,38.23-12.26,55.65-22.25ZM109.96,16.86c-.31-.64-1.01-1.09-1.84-1.45-5.89-2.09-13.85-.68-20.38.52,3.65,5.28,5.54,11.11,6.16,17.74,5.27-3.04,18.29-12.16,16.06-16.81ZM29.93,59.31c-4.33-5.49-7.08-11.71-7.96-18.53-6.22,3.88-13.93,8.49-16.92,14.62-.75,1.71-.25,3.37,1.47,4.1,6.79,2.79,15.83,1.25,23.41-.2Z"/>
        <path class="cls-1" d="M36.86,65.68l5.1-1.47c3.61,2.18,7.43,3.69,11.72,4.35,15.93,2.47,31.09-7.81,35.06-23.36l4.66-2.48c-2.38,14.43-13.1,26.33-27.54,29.61-10.28,2.33-20.63-.19-29-6.65Z"/>
        <path class="cls-1" d="M45.66,43.28c-.84.84-2.04.67-2.7.1-.58-.5-.99-1.8-.26-2.53l9.19-9.09-8.91-8.76c-.83-.81-.68-2.16.07-2.8.85-.74,1.98-.58,2.83.25l9.82,9.69c.94.93.87,2.23-.04,3.14l-10,9.99Z"/>
        <path class="cls-1" d="M70.4,43.75l-11.89.06c-1.11,0-1.86-.92-1.9-1.81s.68-1.94,1.75-1.95l11.51-.06c1.08,0,1.79.57,2,1.44s-.15,2.3-1.46,2.31Z"/>
      </g>
    </g>
  </g>
</svg>